<svg xmlns="http://www.w3.org/2000/svg" xmlns:xlink="http://www.w3.org/1999/xlink" viewBox="0 0 497 272.33"><defs><style>.cls-1{fill:#262262;}.cls-2{fill:url(#radial-gradient);}.cls-3{fill:url(#radial-gradient-2);}.cls-4{fill:url(#linear-gradient);}.cls-5{fill:url(#linear-gradient-2);}.cls-6{fill:url(#linear-gradient-3);}.cls-7{fill:url(#linear-gradient-4);}.cls-8{fill:url(#radial-gradient-3);}.cls-9{fill:url(#radial-gradient-4);}.cls-10{fill:url(#New_Gradient_Swatch_1);}.cls-11{fill:#00a8e1;}.cls-12{fill:url(#linear-gradient-5);}.cls-13{fill:url(#linear-gradient-6);}.cls-14{fill:url(#linear-gradient-7);}.cls-15{fill:url(#radial-gradient-5);}.cls-16{fill:url(#linear-gradient-8);}.cls-17{fill:#f3733b;}.cls-18{fill:url(#radial-gradient-6);}.cls-19{fill:#1c9246;}.cls-20{fill:url(#linear-gradient-9);}.cls-21{fill:url(#linear-gradient-10);}.cls-22{fill:url(#linear-gradient-11);}.cls-23{fill:url(#linear-gradient-12);}</style><radialGradient id="radial-gradient" cx="1329.69" cy="-1387.1" r="0.7" gradientTransform="matrix(0.22, -0.03, -0.03, -0.22, -127.88, -257.06)" gradientUnits="userSpaceOnUse"><stop offset="0" stop-color="#63c4d9"/><stop offset="0.22" stop-color="#5db7d2"/><stop offset="0.63" stop-color="#4c95c3"/><stop offset="1" stop-color="#3c74b3"/></radialGradient><radialGradient id="radial-gradient-2" cx="1331.1" cy="-1387.04" r="0.95" gradientTransform="matrix(0.22, -0.03, -0.03, -0.22, -128.19, -257.02)" xlink:href="#radial-gradient"/><linearGradient id="linear-gradient" x1="736.55" y1="-804.98" x2="1835.9" y2="-804.98" gradientTransform="matrix(0.22, -0.03, -0.03, -0.22, -105.17, -105.53)" xlink:href="#radial-gradient"/><linearGradient id="linear-gradient-2" x1="193.19" y1="36.03" x2="241.86" y2="36.03" gradientTransform="translate(7.36 -20.59) rotate(4.46)" gradientUnits="userSpaceOnUse"><stop offset="0.01" stop-color="#f47d20"/><stop offset="0.17" stop-color="#f37321"/><stop offset="0.45" stop-color="#e45925"/><stop offset="0.8" stop-color="#c83227"/><stop offset="1" stop-color="#b42024"/></linearGradient><linearGradient id="linear-gradient-3" x1="133.7" y1="43.3" x2="208.7" y2="43.3" xlink:href="#linear-gradient-2"/><linearGradient id="linear-gradient-4" x1="209.29" y1="24.89" x2="302.48" y2="24.89" xlink:href="#linear-gradient-2"/><radialGradient id="radial-gradient-3" cx="184.01" cy="39.88" r="26.17" gradientTransform="translate(7.36 -20.59) rotate(4.46)" gradientUnits="userSpaceOnUse"><stop offset="0.01" stop-color="#f5eb28"/><stop offset="1" stop-color="#fbd062"/></radialGradient><radialGradient id="radial-gradient-4" cx="242.66" cy="29.6" r="27.64" xlink:href="#radial-gradient-3"/><linearGradient id="New_Gradient_Swatch_1" x1="154.02" y1="125.03" x2="400.4" y2="125.03" gradientTransform="translate(7.36 -20.59) rotate(4.46)" gradientUnits="userSpaceOnUse"><stop offset="0" stop-color="#1b75bc"/><stop offset="1" stop-color="#262262"/></linearGradient><linearGradient id="linear-gradient-5" x1="550.89" y1="506.5" x2="575.35" y2="506.5" gradientTransform="matrix(0.69, 0.05, 0.05, -0.69, -152.08, 403.24)" gradientUnits="userSpaceOnUse"><stop offset="0.01" stop-color="#80c342"/><stop offset="0.12" stop-color="#92c83e"/><stop offset="0.34" stop-color="#aed136"/><stop offset="0.57" stop-color="#c2d82e"/><stop offset="0.79" stop-color="#cedc29"/><stop offset="1" stop-color="#d2de28"/></linearGradient><linearGradient id="linear-gradient-6" x1="560.5" y1="494.53" x2="591.44" y2="442.96" gradientTransform="matrix(0.69, 0.05, 0.05, -0.69, -152.08, 403.24)" xlink:href="#linear-gradient-2"/><linearGradient id="linear-gradient-7" x1="548.85" y1="447.33" x2="570.17" y2="485.85" gradientTransform="matrix(0.69, 0.05, 0.05, -0.69, -152.08, 403.24)" gradientUnits="userSpaceOnUse"><stop offset="0.01" stop-color="#4aaa48"/><stop offset="0.15" stop-color="#54b047"/><stop offset="0.4" stop-color="#74be44"/><stop offset="0.73" stop-color="#a6ce39"/><stop offset="1" stop-color="#d2de28"/></linearGradient><radialGradient id="radial-gradient-5" cx="561.51" cy="497.75" r="34.86" gradientTransform="matrix(0.69, 0.05, 0.05, -0.69, -152.08, 403.24)" xlink:href="#radial-gradient-3"/><linearGradient id="linear-gradient-8" x1="558.72" y1="480.73" x2="610.59" y2="480.73" gradientTransform="matrix(0.69, 0.05, 0.05, -0.69, -152.08, 403.24)" xlink:href="#radial-gradient"/><radialGradient id="radial-gradient-6" cx="553.26" cy="493.62" r="14.57" gradientTransform="matrix(0.69, 0.05, 0.05, -0.69, -152.08, 403.24)" xlink:href="#radial-gradient-3"/><linearGradient id="linear-gradient-9" x1="149.96" y1="247.67" x2="149.96" y2="137.05" gradientUnits="userSpaceOnUse"><stop offset="0" stop-color="#262262"/><stop offset="1" stop-color="#1b75bc"/></linearGradient><linearGradient id="linear-gradient-10" x1="372.35" y1="227.72" x2="372.35" y2="133.41" xlink:href="#linear-gradient-9"/><linearGradient id="linear-gradient-11" x1="387.74" y1="174.33" x2="387.74" y2="162.66" gradientUnits="userSpaceOnUse"><stop offset="0" stop-color="#284581"/><stop offset="1" stop-color="#1b75bc"/></linearGradient><linearGradient id="linear-gradient-12" x1="421.87" y1="220.28" x2="421.87" y2="176.32" xlink:href="#linear-gradient-9"/></defs><title>beachtime-logo</title><g id="Layer_2" data-name="Layer 2"><g id="Layer_1-2" data-name="Layer 1"><path class="cls-1" d="M214.45,7.43c-40.88,6.09-72.6,29.86-79.68,57,.19-.18,10.36-9.54,28-1.42,0,0,17.89-9.79,34-1.67,0,0,23.26-15,50.47-7.52,0,0,16.68-13.35,33.86-7.42,0,0,10.58-12.71,25-9.3C290.87,14.22,254.38,1.48,214.45,7.43Z"/><path class="cls-1" d="M233.45,147.4l4-3.64c-19.26-52.09-20-141.53-20-142.52L212.51,0C212.59,4.16,213.32,93,233.45,147.4Z"/><path class="cls-2" d="M214.3,7.45l-.43.09Z"/><path class="cls-3" d="M213.79,7.53l.6-.08Z"/><path class="cls-4" d="M161.34,59.46s14.52-9.63,34.92-4.86c0,0,18.59-11.93,48.43-7.56a39.61,39.61,0,0,1,35.25-4.91s15.56-13.06,26.34-5.1C290.93,14.2,254.44,1.47,214.52,7.42c-40.88,6.09-72.6,29.86-79.67,57C135,64.2,146.34,53.62,161.34,59.46Z"/><path class="cls-5" d="M214.52,7.42l-.43.09c-2.93.74-19.8,6.76-17.82,47.09,0,0,18.59-11.93,48.43-7.56C244.69,47,236.25,8.59,214.52,7.42Z"/><path class="cls-6" d="M214.09,7.51l.43-.09c-40.88,6.09-72.6,29.86-79.68,57,.19-.18,11.5-10.77,26.5-4.93C161.34,59.46,164.93,17.77,214.09,7.51Z"/><path class="cls-7" d="M306.28,37C291,14.32,254.81,1.6,215.11,7.33c5.63-.74,49.66-5.17,64.82,34.8C279.94,42.13,295.5,29.07,306.28,37Z"/><path class="cls-8" d="M214.09,7.51c-49.16,10.26-52.74,52-52.74,52s14.52-9.63,34.91-4.86C194.28,14.27,211.16,8.25,214.09,7.51Z"/><path class="cls-9" d="M215.11,7.33l-.6.08C236.25,8.59,244.69,47,244.69,47a39.61,39.61,0,0,1,35.25-4.91C264.77,2.17,220.74,6.59,215.11,7.33Z"/><path class="cls-1" d="M215.14,7.33h0l-.6.08h-.07l-.17,0h-.08l-.41.06.33,0c-2.1.32-4.17.69-6.23,1.09h0a1,1,0,0,0,.5.32,6.48,6.48,0,0,0,1.86.31,26.41,26.41,0,0,0,5.09-.31,30.67,30.67,0,0,0,3.49-.72A9.59,9.59,0,0,0,222,6.84a1.12,1.12,0,0,0,.31-.35h0Q218.77,6.8,215.14,7.33Z"/><path class="cls-10" d="M149.93,132.2c10.6,1,21.07,1.71,31.52,2.13s20.81.52,31.09.08a224,224,0,0,0,30.33-3.16,140.7,140.7,0,0,0,14.56-3.38c5-1.44,10-2.88,15.07-4.38,20.11-5.84,40.68-11.79,62.12-14.6a171.8,171.8,0,0,1,32.33-1.3,132.05,132.05,0,0,1,31.59,5.63,266,266,0,0,0-31.39,1.72,259.29,259.29,0,0,0-30.42,5.53c-20,4.78-39.74,11.5-60.06,17.39-5.08,1.44-10.2,2.9-15.32,4.24A133.28,133.28,0,0,1,245,145.25a155.13,155.13,0,0,1-16.38,1.23c-5.45.15-10.87,0-16.27-.34a214.1,214.1,0,0,1-31.89-4.55c-5.22-1.16-10.4-2.48-15.51-4A145.91,145.91,0,0,1,149.93,132.2Z"/><path class="cls-11" d="M209.79,147.1a216.62,216.62,0,0,1-29.54-4.4c-5.64-1.26-10.74-2.58-15.59-4.05a146.28,146.28,0,0,1-15.18-5.4,1.15,1.15,0,0,1-.66-1.33,1.11,1.11,0,0,1,1.21-.86q4.85.44,9.66.82c7.66.6,14.79,1,21.79,1.3,11.49.46,21.62.48,31,.08a221.94,221.94,0,0,0,30.18-3.15,139,139,0,0,0,14.44-3.36c4.77-1.37,9.89-2.84,15.07-4.38,19.93-5.79,40.54-11.78,62.3-14.64A173.62,173.62,0,0,1,367,106.44a133.84,133.84,0,0,1,31.87,5.68,1.14,1.14,0,0,1-.34,2.23,261.83,261.83,0,0,0-31.25,1.72,256.27,256.27,0,0,0-30.29,5.5c-13.3,3.17-26.76,7.3-39.78,11.29-6.6,2-13.43,4.12-20.23,6.09-5,1.42-10.21,2.9-15.35,4.25a135.26,135.26,0,0,1-16.48,3.18,155.23,155.23,0,0,1-16.5,1.24c-5.11.14-10.46,0-16.36-.34Zm-52-13.07c2.37.83,4.86,1.64,7.49,2.43,4.8,1.46,9.84,2.77,15.42,4A213.88,213.88,0,0,0,212.46,145c5.82.37,11.11.47,16.16.33a152.84,152.84,0,0,0,16.27-1.22A132.8,132.8,0,0,0,261.08,141c5.11-1.35,10.29-2.82,15.29-4.24,6.78-2,13.6-4.06,20.2-6.08,13-4,26.54-8.14,39.91-11.33A258.65,258.65,0,0,1,367,113.8c7.24-.88,14.85-1.41,23.5-1.62a137.13,137.13,0,0,0-23.64-3.46A171.33,171.33,0,0,0,334.77,110c-21.59,2.83-42.11,8.8-62,14.56-5.18,1.54-10.3,3-15.07,4.39a141.07,141.07,0,0,1-14.67,3.41,224.29,224.29,0,0,1-30.49,3.18c-9.44.4-19.64.38-31.18-.08-7-.28-14.19-.71-21.88-1.31Z"/><ellipse class="cls-1" cx="278.68" cy="127.75" rx="2.29" ry="16.62" transform="translate(129.62 395.63) rotate(-85.53)"/><path class="cls-12" d="M272.72,76.28a26.22,26.22,0,0,0-15.5,3.6l4.86,7.75,12.5-11.14C274,76.41,273.35,76.33,272.72,76.28Z"/><path class="cls-13" d="M291.53,118.84c-2.42-20.38-29.45-31.2-29.45-31.2-4.46,25.86,3.87,37.18,8.71,41.42A26.4,26.4,0,0,0,291.53,118.84Z"/><path class="cls-14" d="M268.6,129c.74.06,1.47.08,2.19.08-4.84-4.24-13.18-15.56-8.71-41.42a40.07,40.07,0,0,0-17.84,15.47A26.42,26.42,0,0,0,268.6,129Z"/><path class="cls-15" d="M290.12,84.77a26.32,26.32,0,0,0-15.54-8.27l-12.5,11.14S277,83.55,290.12,84.77Z"/><path class="cls-16" d="M291.53,118.84a26.41,26.41,0,0,0-1.41-34.07c-13.13-1.22-28,2.87-28,2.87S289.11,98.46,291.53,118.84Z"/><path class="cls-17" d="M257.22,79.88a26.45,26.45,0,0,0-8.75,8.4,89.28,89.28,0,0,1,13.61-.64Z"/><path class="cls-18" d="M244.24,103.1a40.08,40.08,0,0,1,17.84-15.47,89.35,89.35,0,0,0-13.61.64,26.27,26.27,0,0,0-4.16,12.29Q244.21,101.84,244.24,103.1Z"/><path class="cls-19" d="M264.33,87.26c.2,1-.78,2.12-2.18,2.39s-2.72-.37-2.92-1.41.78-2.13,2.18-2.39S264.12,86.2,264.33,87.26Z"/><path class="cls-11" d="M297.37,190.81a9,9,0,0,0-3.36.88,16.35,16.35,0,0,0-4.07,2.6c-.82.7-2,1.66-3.52,2.88s-3.24,2.56-5.1,4-3.79,2.9-5.74,4.38-3.72,2.75-5.3,3.81c-1,.68-1.93,1.27-2.73,1.74l.06-.12a48.28,48.28,0,0,1,3.32-5.56c1.45-2.14,3.08-4.41,4.83-6.76s3.5-4.59,5.14-6.61,3.11-3.75,4.39-5.18,2.08-2.32,2.42-2.68a3.67,3.67,0,0,0,.64-4.13,8.6,8.6,0,0,0-2.42-3.13,11.64,11.64,0,0,0-3.89-2.12,8.68,8.68,0,0,0-4.78-.24,15,15,0,0,0-4.38,2.38c-1.74,1.23-3.69,2.73-5.8,4.48S262.8,185,260.54,187l-1.14,1,.06-.07c2.1-2.61,4.33-5.28,6.64-7.94s4.54-5.17,6.62-7.49,3.94-4.31,5.63-6a32.35,32.35,0,0,1,3.82-3.44c2.08-1.44,2-3.1,1.74-4a5.09,5.09,0,0,0-2.3-2.89,10.05,10.05,0,0,0-3.4-1.35,5.48,5.48,0,0,0-3.73.38,19.65,19.65,0,0,0-4.45,4c-1.76,1.91-3.75,4.24-6.08,7.12s-4.72,6-7.29,9.35-5.22,7-7.71,10.45c-2.08,2.88-4.08,5.7-6,8.49-2.4,2-5.25,4.16-8.47,6.39a107,107,0,0,1-10,6.14,48.55,48.55,0,0,1-8.68,3.78,8.69,8.69,0,0,1-2.43.43c-1,0-1.34-.34-1.43-.44a4,4,0,0,1-.73-3,14.45,14.45,0,0,1,1.74-5.55,39.92,39.92,0,0,1,3.17-4.8,68.24,68.24,0,0,1,5.06-6,47,47,0,0,1,5.79-5.26,11.82,11.82,0,0,1,5-2.45,3.77,3.77,0,0,1-1,1.71c-.39.4-.86.83-1.39,1.27l-1.87,1.59c-.7.59-1.36,1.19-2,1.77a11.84,11.84,0,0,0-1.6,1.86,4.56,4.56,0,0,0-.67,3.11,8.36,8.36,0,0,0,.87,2.93,9.77,9.77,0,0,0,1.6,2.31,3.62,3.62,0,0,0,2.68,1.24l.42,0c1.07-.13,2.21-.95,3.94-2.82a50.29,50.29,0,0,0,4.21-5.31A49.3,49.3,0,0,0,240.9,187a14.11,14.11,0,0,0,1.74-6.05,6,6,0,0,0-1.32-3.84,8.13,8.13,0,0,0-2.94-2.28,12.07,12.07,0,0,0-3.36-1,10,10,0,0,0-3.15,0,21.66,21.66,0,0,0-6.26,2.29,52.88,52.88,0,0,0-6.79,4.27,75.84,75.84,0,0,0-6.66,5.52,68.6,68.6,0,0,0-5.9,6.19c-.59.7-1.18,1.45-1.81,2.29q-2,1.69-5.2,4.5c-2.16,1.9-4.37,3.75-6.57,5.5s-4.24,3.29-6,4.48l-.31.21q.56-.93,1.4-2.12c1.16-1.64,2.65-3.65,4.45-6s3.88-5,6.12-8a4.17,4.17,0,0,0,.14-4.95,8.11,8.11,0,0,0-2.15-2.46,8.77,8.77,0,0,0,.24-3.4,12.65,12.65,0,0,0-1.24-4.17,11.45,11.45,0,0,0-2.29-3.11,6.4,6.4,0,0,0-2.87-1.71c-1.88-.35-4.16.1-7,1.4a52.07,52.07,0,0,0-8.22,4.87c-2.86,2-5.83,4.36-8.82,6.92s-5.76,5.12-8.29,7.66l-.27.27a63.18,63.18,0,0,1-5.35,4c-2.21,1.49-4.64,3-7.23,4.55s-5.27,3-8,4.39a80.29,80.29,0,0,1-7.65,3.42,33.54,33.54,0,0,1-6.11,1.76,7.87,7.87,0,0,1-1.29.12c-.83,0-1.1-.2-1.24-.32-.56-.47,0-1.94.33-2.55a29.5,29.5,0,0,1,3.48-5.49,14.09,14.09,0,0,0,4.66,1.8,12.31,12.31,0,0,0,8-1.23,37.76,37.76,0,0,0,5.45-3.16,65.26,65.26,0,0,0,6.17-4.73,38.75,38.75,0,0,0,5.3-5.54,13.36,13.36,0,0,0,2.84-6,7.64,7.64,0,0,0-.78-5.17,9.72,9.72,0,0,0-2.82-3.08,11.63,11.63,0,0,0-3.31-1.61,9.92,9.92,0,0,0-2.67-.49,15,15,0,0,0-6.4,1.93,58.51,58.51,0,0,0-7.67,4.69c-1.45,1-3,2.2-4.57,3.47L122,188.52c-6.23,3.21-12.64,6.52-16.23,8-3.85-8.37-17.69-10.22-27.26-10.46l4.3-2.3c21.32-11.4,41.46-22.17,47-31.08a9.17,9.17,0,0,0,1-2,9,9,0,0,0-.81-8.51c-3.16-4.51-11.12-6.89-23-6.89a120.65,120.65,0,0,0-12.92.77c-.9.1-1.75.22-2.58.34l-.39.06-1.86.25-.1,0C61.39,140,6.06,164.15.42,182.17a5.06,5.06,0,0,0,.17,4.47,4.45,4.45,0,0,0,3.35,2.06l.15,0a10.24,10.24,0,0,0,3.85-.34c4.62-1.21,8.19-4.84,9.32-7.79a4,4,0,0,0-.06-3.53l-.11-.19c10.45-10.27,44.76-26.07,69.1-29.49l.17,0c1.61-.28,3.07-.46,4.8-.67A94.32,94.32,0,0,1,102,146c7.2,0,12.39,1.23,13.88,3.3a2.27,2.27,0,0,1,.22,2.24l0,.16v0l-.06.11c-2.43,4.16-18.14,13-29.84,19.42h0l-.43.23c-6.83,3.6-13.24,7-18.57,10,1.34-2.72,2.61-5.3,3.74-7.68,6.36-13.25,5.92-15.31,4.4-16.73a4.69,4.69,0,0,0-3.59-1.32,9.24,9.24,0,0,0-1.41.11c-3.46.52-7.37,3.06-8.55,5.53a3.64,3.64,0,0,0-.22,2.88c-.25.75-.95,2.58-2.9,6.8-2.08,4.51-4.83,10.23-7.74,16.29l-1.09,2.26-.08,0c-3.36,1.56-5.9,3.8-6.79,6a4,4,0,0,0,.2,3.75,3.7,3.7,0,0,0,1.47,1.27c-6.95,14.89-12.78,28.75-12.85,28.93l-.09.26a3.87,3.87,0,0,0,.34,3.58c1,1.36,2.91,1.84,5.24,1.29A11.42,11.42,0,0,0,40,233.65a29.76,29.76,0,0,0-4.87,5.76,13.59,13.59,0,0,0-1.51,3c-.81,2.46-.22,4,.41,4.9,1,1.37,2.72,2.06,5.14,2.06a19.37,19.37,0,0,0,4.25-.55l.34-.08.13,0c14.5-3.89,47.68-20.26,58.39-35.36a34.53,34.53,0,0,0,2.44-4.12,21.5,21.5,0,0,0,1.09-2.61c1.19-.5,3.09-1.35,5.25-2.35a9.18,9.18,0,0,0-1,3.9,13.13,13.13,0,0,0,4.76,10.49,13.69,13.69,0,0,0,4.44,2.42,14.46,14.46,0,0,0,4.41.77,22.83,22.83,0,0,0,9.29-2.44,80.27,80.27,0,0,0,10.61-6c1.25-.83,2.54-1.71,3.87-2.65,0,.31.1.63.17,1a15.74,15.74,0,0,0,1.9,4.7,13,13,0,0,0,3.46,3.78,8.08,8.08,0,0,0,4.83,1.66,11,11,0,0,0,5.06-1.53,49.11,49.11,0,0,0,5.44-3.4,68.39,68.39,0,0,0,5.65-4.5l1.7-1.52a6.52,6.52,0,0,0-.18,1,8.42,8.42,0,0,0,2.37,7.27,8.67,8.67,0,0,0,3.35,2,7.5,7.5,0,0,0,4.38,0c.85-.19,2.23-.79,5.3-3.65,2.12-2,4.47-4.27,7-6.82l1.78-1.8a14.33,14.33,0,0,0,.6,2.37,16.49,16.49,0,0,0,3.43,5.84A15.53,15.53,0,0,0,208.9,221a11.52,11.52,0,0,0,6.39.86,21.84,21.84,0,0,0,7.78-3.42c2.17-1.36,4.45-2.91,6.81-4.62a9.65,9.65,0,0,0-1.12,2.1,4.79,4.79,0,0,0,.28,3.62,7.16,7.16,0,0,0,2,2.51,5.9,5.9,0,0,0,2.74,1.25,3.3,3.3,0,0,0,3.28-1.36,74.47,74.47,0,0,1,5.38-6.3c2.22-2.37,4.66-4.82,7.25-7.29s5.28-4.9,8.06-7.29c2.22-1.9,4.37-3.7,6.43-5.35l-.5.6a76.65,76.65,0,0,0-5.76,7.8c-1.81,2.83-2.74,5.18-2.83,7.16a8.19,8.19,0,0,0,.94,4.41,11.4,11.4,0,0,0,2.8,3.49,13.08,13.08,0,0,0,3.82,2.26,8.68,8.68,0,0,0,3.07.58h0a8,8,0,0,0,1.43-.13,11.9,11.9,0,0,0,4.09-2.07c1.58-1.09,3.39-2.45,5.36-4s4-3.37,6.15-5.31l6.07-5.56,5.25-4.81c1.55-1.42,2.7-2.48,3.39-3.13,1.57-1.33,2.31-2.33,2.47-3.33a2.36,2.36,0,0,0-.51-2A2.52,2.52,0,0,0,297.37,190.81Zm-120.69,6.95c-3.32,2.95-6.46,5.53-9.33,7.68a46.27,46.27,0,0,1-7.28,4.64,9.47,9.47,0,0,1-1.81.7,7.73,7.73,0,0,1,.7-1.33,45.72,45.72,0,0,1,4.76-6,96.32,96.32,0,0,1,7.31-7.12c2.79-2.47,5.54-4.72,8.15-6.69a47.6,47.6,0,0,1,7-4.49,10.42,10.42,0,0,1,2.34-.91l0,.07a32,32,0,0,1-2.22,4.21C183.18,191.74,180,194.85,176.67,197.76Zm-46.24-.29c1-1,2.07-2,3.16-3,2.08-1.86,4.08-3.5,5.94-4.87a28.7,28.7,0,0,1,4.88-3l.53-.23a17.48,17.48,0,0,1-1.67,2.16,37.16,37.16,0,0,1-3.82,3.69,33.69,33.69,0,0,1-4.58,3.27A19.36,19.36,0,0,1,130.43,197.47Zm-86,31.63c.3-.69.72-1.62,1.23-2.77,2.69-6,8-17.5,13.58-28.78a82.38,82.38,0,0,1,10.06-.61c10.74,0,18.71,2,21.64,5.31-17.06,7.17-35.92,18.55-47.1,27.9A8.15,8.15,0,0,0,44.46,229.1ZM88.05,214c-7.47,8.15-24.13,16.5-34.85,21A195,195,0,0,1,74.09,221.2C77.45,219.29,82.52,216.61,88.05,214Z"/><path class="cls-11" d="M359.75,179.35q5.44-6.62,10.12-12.38c3.12-3.85,5.65-7.18,7.54-9.94,1-1.48.94-3.29,0-5.37a13.14,13.14,0,0,0-1-1.81c4.49-1,9-2,13.31-2.95,5.29-1.12,10.35-2.12,15-3,4.87-.88,9.14-1.6,13-2.19s7.35-1,10.27-1.15c1.8-.13,5.15-.36,5.36-2.75.11-1.33-.72-2.51-2.47-3.52a20.48,20.48,0,0,0-4.61-1.85,17.4,17.4,0,0,0-4.57-.77h0c-2.82.09-6.93.47-12.57,1.18-5.45.68-11.74,1.6-18.68,2.73s-14.31,2.43-21.71,3.83-14.8,2.91-21.58,4.42-12.94,3-18.24,4.49A63.26,63.26,0,0,0,317,152.6a8.64,8.64,0,0,0-3.75,3.78,16.1,16.1,0,0,0-1.71,4.79,8.46,8.46,0,0,0,.23,4.48c.69,1.83,2.54,2.54,4.65,1.65,3.08-1.26,6.65-2.56,10.6-3.85s8.15-2.59,12.67-3.94,9.17-2.66,14.13-4c3.31-.89,6.66-1.77,10-2.61q-1.79,2.23-4.15,5.08c-3.2,3.86-6.8,8.12-10.7,12.67s-7.95,9.3-12,14.14-7.85,9.38-11.2,13.5-6.19,7.76-8.4,10.75c-3.13,4.24-3.66,5.6-3.78,6.53a12.28,12.28,0,0,0,1,5.43,21.42,21.42,0,0,0,2.84,5.14,8.58,8.58,0,0,0,3.78,3.11,3.21,3.21,0,0,0,1.07.19h0c1.08,0,2.55-.56,3.39-3.24a38.7,38.7,0,0,1,4.33-8.34c2.25-3.52,5-7.45,8.2-11.69s6.71-8.72,10.45-13.3S356.13,183.76,359.75,179.35Z"/><path class="cls-11" d="M387.29,161.42a16.54,16.54,0,0,0-4.19,1.95,14.67,14.67,0,0,0-3.4,2.94,8.41,8.41,0,0,0-1.87,3.72,4.71,4.71,0,0,0,1,4.12,5,5,0,0,0,3.77,1.87q.49,0,1,0a14.63,14.63,0,0,0,3.5-.46,23,23,0,0,0,4.53-1.66,15.22,15.22,0,0,0,3.88-2.64,6.81,6.81,0,0,0,2.13-3.76,5.16,5.16,0,0,0-1.61-4.47A7.05,7.05,0,0,0,391.8,161,11.24,11.24,0,0,0,387.29,161.42Z"/><path class="cls-11" d="M494.43,191.08a7.5,7.5,0,0,0-3.3.78,15.72,15.72,0,0,0-3.73,2.43,63.47,63.47,0,0,1-5.35,4c-2.22,1.49-4.65,3-7.23,4.55s-5.28,3-8,4.39a80.31,80.31,0,0,1-7.65,3.42,33.42,33.42,0,0,1-6.11,1.76,7.87,7.87,0,0,1-1.29.12c-.83,0-1.1-.2-1.24-.32-.56-.47,0-1.94.33-2.55a29.55,29.55,0,0,1,3.48-5.49,14.1,14.1,0,0,0,4.66,1.8,12.31,12.31,0,0,0,8-1.23,37.93,37.93,0,0,0,5.45-3.16,64.88,64.88,0,0,0,6.17-4.73,38.33,38.33,0,0,0,5.3-5.54,13.34,13.34,0,0,0,2.84-6,7.62,7.62,0,0,0-.78-5.16,9.72,9.72,0,0,0-2.82-3.09,11.67,11.67,0,0,0-3.31-1.61,9.89,9.89,0,0,0-2.67-.49,15.05,15.05,0,0,0-6.4,1.92,58.5,58.5,0,0,0-7.67,4.69c-2.68,1.91-5.4,4.06-8.07,6.4-2.23,1.94-4.36,4-6.34,6l-.06,0-.34.27c-.78.66-1.93,1.59-3.5,2.81s-3.22,2.44-5,3.71-3.7,2.62-5.61,4-3.68,2.52-5.25,3.5q-1.48.93-2.69,1.63c.54-1,1.22-2.24,2-3.55,1.13-1.85,2.48-3.88,4-6s3.08-4.31,4.54-6.26,2.88-3.79,4.09-5.29,2.13-2.59,2.74-3.26a5.24,5.24,0,0,0,1.14-3.84,7.77,7.77,0,0,0-1.28-3.67,8.9,8.9,0,0,0-2.64-2.62,4.53,4.53,0,0,0-4-.55,9.85,9.85,0,0,0-2.69,1.7c-1.07.83-2.3,1.87-3.78,3.2s-3,2.69-4.7,4.24l-2.71,2.48a5.08,5.08,0,0,0,.06-3,12.65,12.65,0,0,0-1.23-3.2,8,8,0,0,0-2.55-2.82,5.15,5.15,0,0,0-4.09-.79,10,10,0,0,0-3.54,1.89c-.87.64-1.8,1.36-2.78,2.16a2.91,2.91,0,0,0,.74-2,2.67,2.67,0,0,0-1-1.9,7.29,7.29,0,0,0-2.94-1.41,11.52,11.52,0,0,0-3.61-.31,6.35,6.35,0,0,0-3.4,1.06,26.17,26.17,0,0,0-4.45,4.48c-1.66,2-3.48,4.37-5.39,7-1.51,2.1-3.14,4.43-4.85,6.94-.56.45-1.47,1.16-2.73,2.11-1.59,1.2-3.44,2.52-5.5,3.92s-4.34,2.94-6.67,4.49-4.49,2.9-6.49,4.08a52.62,52.62,0,0,1-5.14,2.72l-.52.22.18-.34a43.18,43.18,0,0,1,3.72-5.43c1.67-2.13,3.64-4.43,5.85-6.82s4.45-4.75,6.46-6.78,3.9-3.93,5.48-5.48c2-2,2.69-2.58,3-2.85a3,3,0,0,0,.41-4.08,7.76,7.76,0,0,0-2.72-2.34,11.32,11.32,0,0,0-3.7-1.25,6,6,0,0,0-3.93.57l-.12.08a27.06,27.06,0,0,0-2.91,2.56c-1.4,1.33-3,3-4.83,4.95s-3.62,4-5.67,6.4-3.82,4.65-5.47,6.94a52,52,0,0,0-4.14,6.68,13.35,13.35,0,0,0-1.75,5.86,9.27,9.27,0,0,0,1.15,4.54,12.92,12.92,0,0,0,2.75,3.42,13.44,13.44,0,0,0,3.66,2.31,10.74,10.74,0,0,0,4.17.88,11.36,11.36,0,0,0,5.38-1.93,69.11,69.11,0,0,0,6.42-4.34L371,215a4.06,4.06,0,0,0,.22,2.74,7.87,7.87,0,0,0,1.76,2.57,6,6,0,0,0,2.73,1.55,3.77,3.77,0,0,0,.89.11,3.18,3.18,0,0,0,2.6-1.34,52.71,52.71,0,0,1,5-5.4c2.4-2.34,5.25-4.93,8.48-7.7s6.39-5.37,9.84-8.13l-1.17,1.43-3.69,4.5q-1.68,2.05-2.92,3.53c-.91,1.08-1.44,1.74-1.69,2.09a5.1,5.1,0,0,0-.84,3.55,9.38,9.38,0,0,0,.86,3.31,4.34,4.34,0,0,0,2.69,2.38c1.38.42,2.85-.19,4.4-1.93a38,38,0,0,1,3.1-3.12c1.54-1.44,3.32-3,5.45-4.87s4.26-3.62,6.59-5.52c1.32-1.08,2.62-2.13,3.9-3.14q-.64.88-1.25,1.79a20.4,20.4,0,0,0-3.07,6.53,8.37,8.37,0,0,0,.31,4.52,10.44,10.44,0,0,0,2.32,3.8,12.63,12.63,0,0,0,3.48,2.58,9.14,9.14,0,0,0,4.09,1c1.05,0,2.37-.56,4.27-1.82a65.38,65.38,0,0,0,5.41-4.08c1.71-1.42,3.49-3,5.29-4.58a11.75,11.75,0,0,0,1.07,3,13.48,13.48,0,0,0,3.38,4.24,13.74,13.74,0,0,0,4.44,2.42,14.48,14.48,0,0,0,4.41.77,22.82,22.82,0,0,0,9.29-2.44,80.32,80.32,0,0,0,10.61-6c3.65-2.41,7.39-5.11,11.11-8s7.25-5.76,10.5-8.51c1-.83,2.12-2,2.12-3.33A2.51,2.51,0,0,0,494.43,191.08Zm-34.24,6.38c1-1,2.07-2,3.16-3,2.07-1.86,4.07-3.49,5.93-4.87a28.82,28.82,0,0,1,4.88-3l.53-.23a17.62,17.62,0,0,1-1.67,2.16,37.1,37.1,0,0,1-3.82,3.69,33.82,33.82,0,0,1-4.58,3.27A19.34,19.34,0,0,1,460.19,197.47Z"/><path class="cls-20" d="M297.37,192.55a7.7,7.7,0,0,0-2.69.74,14.5,14.5,0,0,0-3.63,2.33q-1.25,1.06-3.56,2.91t-5.13,4q-2.81,2.17-5.75,4.39t-5.38,3.86q-2.44,1.64-4.13,2.54t-1.81.48q-.5-1.05.75-3.6a49.29,49.29,0,0,1,3.44-5.77q2.18-3.22,4.88-6.83t5.19-6.66q2.5-3.07,4.44-5.24t2.44-2.7a2,2,0,0,0,.32-2.27,6.83,6.83,0,0,0-1.94-2.49,9.83,9.83,0,0,0-3.31-1.8,7.09,7.09,0,0,0-3.82-.21,13.92,13.92,0,0,0-3.81,2.12q-2.56,1.8-5.69,4.39t-6.5,5.5q-3.37,2.91-6.19,5.5t-4.88,4.44a31.21,31.21,0,0,1-2.56,2.17q1.62-2.43,4.25-6t5.81-7.56q3.19-4,6.69-8t6.63-7.51q3.12-3.49,5.69-6.08a33.69,33.69,0,0,1,4.06-3.65q1.38-1,1.06-2.06a3.39,3.39,0,0,0-1.56-1.9,8.28,8.28,0,0,0-2.81-1.11,3.8,3.8,0,0,0-2.57.21,18.8,18.8,0,0,0-4,3.6q-2.63,2.85-6,7T258,176.62q-3.88,5.13-7.69,10.42c-2.12,2.94-4.17,5.82-6.17,8.66q-3.72,3.14-8.77,6.63a108.73,108.73,0,0,1-10.13,6.24,50.11,50.11,0,0,1-9,3.92q-4,1.21-5.63-.48a5.58,5.58,0,0,1-1.19-4.34,16.07,16.07,0,0,1,1.94-6.24,41.41,41.41,0,0,1,3.31-5,69.79,69.79,0,0,1,5.19-6.19,48.46,48.46,0,0,1,6-5.45,13.31,13.31,0,0,1,5.88-2.8q1.75-.21,1.88,1.32a4.62,4.62,0,0,1-1.5,3.33q-.63.63-1.5,1.38l-1.88,1.59q-1,.85-1.88,1.69a10.21,10.21,0,0,0-1.37,1.59,2.88,2.88,0,0,0-.38,2,6.62,6.62,0,0,0,.69,2.33,8,8,0,0,0,1.31,1.9,1.87,1.87,0,0,0,1.63.69q.87-.11,2.88-2.28a48.36,48.36,0,0,0,4.06-5.13,47.46,47.46,0,0,0,3.63-6.14,12.62,12.62,0,0,0,1.56-5.29,4.26,4.26,0,0,0-.94-2.75,6.4,6.4,0,0,0-2.31-1.8,10.28,10.28,0,0,0-2.88-.85,8.18,8.18,0,0,0-2.63,0,20.19,20.19,0,0,0-5.75,2.11,50.9,50.9,0,0,0-6.56,4.13,73.7,73.7,0,0,0-6.5,5.4,66.38,66.38,0,0,0-5.75,6c-.67.8-1.29,1.6-1.87,2.38l-.06.05q-2,1.69-5.25,4.55t-6.63,5.55q-3.38,2.7-6.06,4.55t-3.56,1.43c-.5-.21-.54-.81-.13-1.8a23.22,23.22,0,0,1,2.38-4q1.75-2.49,4.5-6t6.13-8a2.51,2.51,0,0,0,0-3,6.27,6.27,0,0,0-2.75-2.59,7.13,7.13,0,0,0,.63-3.92,10.83,10.83,0,0,0-1.06-3.6,9.64,9.64,0,0,0-1.94-2.64,4.85,4.85,0,0,0-2-1.27q-2.25-.42-5.94,1.27a50.15,50.15,0,0,0-7.94,4.71q-4.25,3-8.69,6.83t-8.19,7.57l-.32.32-.06,0a64.88,64.88,0,0,1-5.5,4.07q-3.38,2.27-7.32,4.6t-8.13,4.44a81.38,81.38,0,0,1-7.82,3.49,35.08,35.08,0,0,1-6.44,1.85q-2.81.47-3.94-.58-1.62-1.37-.12-4.6a34,34,0,0,1,4.75-7.14,11.13,11.13,0,0,0,5.31,2.49,10.55,10.55,0,0,0,6.94-1.11,36.64,36.64,0,0,0,5.19-3,63.38,63.38,0,0,0,6-4.6,36.75,36.75,0,0,0,5.06-5.29,11.63,11.63,0,0,0,2.5-5.19,6,6,0,0,0-.56-4,8,8,0,0,0-2.31-2.54,9.87,9.87,0,0,0-2.81-1.37,8.55,8.55,0,0,0-2.19-.42,13.61,13.61,0,0,0-5.63,1.74,56.69,56.69,0,0,0-7.44,4.55c-1.53,1.09-3.08,2.27-4.63,3.52-9.57,4.87-21,11-25,12.33C102.16,189,84,187.28,71.43,187.93c23.16-12.59,50.64-26.13,56.9-36.1a7.83,7.83,0,0,0,.86-1.7c3.58-9.86-9.11-15.14-35-12.32-.88.1-1.72.22-2.52.34s-1.48.22-2.24.31l-.14,0c-27.58,3.22-81.88,27-87.28,44.28-.83,2.34,0,3.91,2.18,4.24h.06a8.52,8.52,0,0,0,3.21-.29c4-1.06,7.19-4.24,8.14-6.73.6-1.57.12-2.6-1.16-2.83,8.73-10.37,45.7-27.85,71.47-31.47l.11,0c1.67-.29,3.17-.48,4.9-.68,18.84-2.2,28.83.9,26.73,7.12,0,.09,0,.18-.06.27a.53.53,0,0,1,0-.06,3.73,3.73,0,0,1-.21.4c-2.32,4-13.72,10.93-30.41,20l-.13.08h0c-1,.51-13.65,7.18-23.81,12.83,2.23-4.54,4.37-8.82,6.17-12.61,6.21-12.93,5.38-14.17,4.73-14.76s-1.88-1-3.52-.72c-2.86.43-6.32,2.62-7.24,4.56a1.9,1.9,0,0,0,.06,2c-.07.42-.55,2-3.16,7.69-2.41,5.22-5.67,12-9.13,19.19l-.3.11-.32.13c-2.94,1.36-5.2,3.32-5.91,5.08s.32,3.14,2.53,3.18C39.66,215,33.37,230,33.3,230.15l-.09.24c-.74,2.15.79,3.27,3.55,2.62a9.13,9.13,0,0,0,6.11-4.62c.3-.69.72-1.63,1.24-2.78,2.62-5.87,8.14-17.72,14-29.66,11.91-1.69,32.13-1,35.38,7.12-23.81,9.65-51.45,28-57,37.27A11.89,11.89,0,0,0,35.22,243c-1.33,4,1.67,5.58,7.77,4.19l.37-.09h0c13.58-3.64,46.89-19.83,57.41-34.66a32.78,32.78,0,0,0,2.32-3.91,19.81,19.81,0,0,0,1.24-3.15c1.53-.55,6.69-3,11.37-5.14-.71.92-1.37,1.82-1.94,2.7a10.45,10.45,0,0,0-2.06,5.29,11.4,11.4,0,0,0,4.13,9.15,11.91,11.91,0,0,0,3.88,2.12,12.71,12.71,0,0,0,3.88.69,21.07,21.07,0,0,0,8.56-2.28A78.39,78.39,0,0,0,142.56,212c2.3-1.52,4.62-3.15,7-4.87,0,.1-.1.22-.14.32a6.87,6.87,0,0,0-.13,3.91,14,14,0,0,0,1.69,4.18,11.25,11.25,0,0,0,3,3.28,6.37,6.37,0,0,0,3.81,1.32,9.52,9.52,0,0,0,4.25-1.32,47.55,47.55,0,0,0,5.25-3.28,66.55,66.55,0,0,0,5.5-4.39q2.75-2.43,5.06-4.66t3.94-4a25.51,25.51,0,0,0,2.12-2.49q-.63.85-1.62,2.38l-2.13,3.28a36.39,36.39,0,0,0-2,3.49,8.91,8.91,0,0,0-1,3,6.59,6.59,0,0,0,.25,3.12A6.51,6.51,0,0,0,179,218a6.92,6.92,0,0,0,2.69,1.64,5.7,5.7,0,0,0,3.44,0q1.37-.31,4.5-3.23t6.94-6.77l4.64-4.69a13.35,13.35,0,0,0,.61,5.91,14.72,14.72,0,0,0,3.06,5.24,13.75,13.75,0,0,0,4.69,3.33,9.77,9.77,0,0,0,5.44.74,20.49,20.49,0,0,0,7.13-3.18q4.38-2.75,9.25-6.45c1.83-1.39,3.66-2.83,5.48-4.31l-.23.34q-2.75,4.08-4.44,6.77a27.1,27.1,0,0,0-1.81,3.12,3,3,0,0,0,.19,2.33,5.41,5.41,0,0,0,1.5,1.9,4.18,4.18,0,0,0,1.94.9,1.58,1.58,0,0,0,1.62-.69,76.18,76.18,0,0,1,5.5-6.45q3.37-3.6,7.31-7.35t8.13-7.35q4.19-3.6,8-6.61t6.81-5a21.32,21.32,0,0,1,4.63-2.54q-1.63,1.48-4.75,4.76T265,197.41a74.23,74.23,0,0,0-5.63,7.62q-2.44,3.81-2.56,6.35a6.47,6.47,0,0,0,.75,3.49,9.64,9.64,0,0,0,2.38,3,11.28,11.28,0,0,0,3.31,2,6.63,6.63,0,0,0,3.56.37,10.85,10.85,0,0,0,3.44-1.8q2.31-1.59,5.25-4t6.07-5.24l6.07-5.55,5.25-4.81q2.31-2.12,3.44-3.17,1.75-1.48,1.88-2.28T297.37,192.55ZM92.87,209.91c-.37.78-.84,1.58-1.39,2.52l-.13.22C82.79,225,51.86,238,45.15,239.87c2-3.09,16-13.31,28.08-20.17,4.55-2.59,12-6.49,19.65-9.82ZM147,184.51q.63.42-.06,1.85a15.35,15.35,0,0,1-2.38,3.33,38.82,38.82,0,0,1-4,3.86,35.27,35.27,0,0,1-4.81,3.44,20.83,20.83,0,0,1-4.94,2.17,6.65,6.65,0,0,1-4.31-.05,76.52,76.52,0,0,1,5.94-5.93q3.19-2.86,6.06-5a30.19,30.19,0,0,1,5.19-3.17Q146,184,147,184.51Zm30.82,14.55q-5.06,4.5-9.44,7.78a47.7,47.7,0,0,1-7.57,4.81q-3.19,1.54-4.06.58t.75-3.7a47.16,47.16,0,0,1,4.94-6.24,97.54,97.54,0,0,1,7.44-7.25q4.25-3.76,8.25-6.77a49.19,49.19,0,0,1,7.25-4.66q3.25-1.64,4.75-1,.75.42-.06,2.38a34.15,34.15,0,0,1-2.44,4.6Q182.89,194.56,177.83,199.05Z"/><path class="cls-21" d="M368.52,165.88q4.67-5.76,7.43-9.78.92-1.43-.15-3.69a9.56,9.56,0,0,0-2.76-3.56q8.27-1.95,16.24-3.63t15.09-3q7.12-1.29,13.1-2.2t10.41-1.17c2.45-.17,3.7-.56,3.75-1.16s-.49-1.23-1.61-1.88a18.66,18.66,0,0,0-4.21-1.69,16,16,0,0,0-4.06-.71q-4.14.13-12.41,1.17t-18.61,2.72q-10.34,1.69-21.67,3.83t-21.52,4.4q-10.18,2.27-18.15,4.47a62.29,62.29,0,0,0-11.64,4.15,6.9,6.9,0,0,0-3,3,14.32,14.32,0,0,0-1.53,4.28,6.73,6.73,0,0,0,.15,3.56c.36,1,1.15,1.17,2.37.65q4.75-1.95,10.72-3.89t12.71-3.95q6.74-2,14.17-4T368.29,150q-2.45,3.24-7.28,9.07t-10.72,12.7q-5.9,6.87-12,14.13t-11.18,13.48q-5.05,6.22-8.35,10.69t-3.45,5.64a10.72,10.72,0,0,0,.92,4.66,19.45,19.45,0,0,0,2.6,4.73,7,7,0,0,0,3,2.53q1.45.52,2.22-1.94a40.1,40.1,0,0,1,4.52-8.75q3.44-5.38,8.27-11.79t10.49-13.35q5.67-6.93,11.1-13.54T368.52,165.88Z"/><path class="cls-22" d="M387.79,163.08a14.8,14.8,0,0,0-3.75,1.75,12.93,12.93,0,0,0-3,2.59,6.71,6.71,0,0,0-1.5,3,3,3,0,0,0,.69,2.7,3.3,3.3,0,0,0,2.56,1.22,12,12,0,0,0,3.94-.37,21.22,21.22,0,0,0,4.19-1.54,13.38,13.38,0,0,0,3.44-2.33,5.1,5.1,0,0,0,1.62-2.8,3.46,3.46,0,0,0-1.12-3,5.34,5.34,0,0,0-3.25-1.59A9.49,9.49,0,0,0,387.79,163.08Z"/><path class="cls-23" d="M494.33,192.81a5.85,5.85,0,0,0-2.5.64,13.91,13.91,0,0,0-3.31,2.17,65.15,65.15,0,0,1-5.5,4.07q-3.38,2.27-7.32,4.6t-8.12,4.44a81.18,81.18,0,0,1-7.82,3.49,35,35,0,0,1-6.44,1.85q-2.81.47-3.94-.58-1.62-1.37-.12-4.6a34,34,0,0,1,4.75-7.14,11.13,11.13,0,0,0,5.31,2.49,10.55,10.55,0,0,0,6.94-1.11,36.69,36.69,0,0,0,5.19-3,63.19,63.19,0,0,0,6-4.6,36.58,36.58,0,0,0,5.06-5.29A11.61,11.61,0,0,0,485,185a5.93,5.93,0,0,0-.56-4,8,8,0,0,0-2.31-2.54,9.88,9.88,0,0,0-2.82-1.37,8.53,8.53,0,0,0-2.19-.42,13.6,13.6,0,0,0-5.63,1.74,56.46,56.46,0,0,0-7.44,4.55q-3.94,2.81-7.94,6.3c-2.29,2-4.39,4-6.31,6l-.45.36q-1.25,1.06-3.56,2.86t-5.07,3.75q-2.75,2-5.63,4t-5.31,3.54q-2.44,1.54-4.13,2.43c-1.13.6-1.82.79-2.07.58s-.19-1.09.44-2.43a50.28,50.28,0,0,1,2.69-4.87q1.75-2.86,4.06-6.14t4.56-6.3q2.26-3,4.13-5.34t2.75-3.28a3.47,3.47,0,0,0,.75-2.59,6,6,0,0,0-1-2.86,7.13,7.13,0,0,0-2.13-2.12,2.81,2.81,0,0,0-2.5-.37,9.87,9.87,0,0,0-2.19,1.43q-1.56,1.22-3.69,3.12t-4.69,4.23q-2.56,2.32-5.06,4.66-6,5.61-13.26,12.59,3.25-4,6-7.51,2.37-3,4.38-5.61a33.13,33.13,0,0,0,2.38-3.39,3.21,3.21,0,0,0,.06-2.12,10.87,10.87,0,0,0-1.06-2.75,6.28,6.28,0,0,0-2-2.22,3.44,3.44,0,0,0-2.75-.53,8.8,8.8,0,0,0-2.88,1.59q-1.87,1.38-4.25,3.39t-5,4.5q-2.63,2.49-5.19,5t-4.88,4.92q-2.32,2.38-3.94,4.07,2.12-3.39,4.81-6.88t5.25-6.51q2.56-3,4.75-5.29t3.19-3.44q.88-1,.06-1.64a5.66,5.66,0,0,0-2.25-1.06,9.73,9.73,0,0,0-3.06-.26,4.75,4.75,0,0,0-2.5.74,24.9,24.9,0,0,0-4.13,4.18q-2.51,3-5.32,6.93c-1.62,2.26-3.28,4.64-5,7.11-.54.45-1.52,1.21-3,2.31s-3.44,2.52-5.57,4-4.36,2.95-6.69,4.5-4.52,2.93-6.56,4.13a54.58,54.58,0,0,1-5.31,2.8q-2.25,1-2.87.58-1-.74.31-3.12a44.35,44.35,0,0,1,3.88-5.66q2.56-3.28,5.94-6.93t6.5-6.82q3.13-3.17,5.5-5.5t3-2.86a1.3,1.3,0,0,0,.19-1.85,6,6,0,0,0-2.12-1.8,9.52,9.52,0,0,0-3.13-1.06,4.28,4.28,0,0,0-2.81.37,30.59,30.59,0,0,0-2.69,2.38q-2.07,2-4.75,4.87t-5.63,6.35q-2.94,3.44-5.38,6.83a49.89,49.89,0,0,0-4,6.45,11.87,11.87,0,0,0-1.56,5.08,7.51,7.51,0,0,0,.94,3.7,11.11,11.11,0,0,0,2.37,3,11.67,11.67,0,0,0,3.19,2,9,9,0,0,0,3.5.74,9.93,9.93,0,0,0,4.5-1.7,66.72,66.72,0,0,0,6.25-4.23q3.37-2.54,6.94-5.61l1.5-1.3L375,211.54q-1.69,2.7-2.06,3.33a2.33,2.33,0,0,0-.12,2.22,6.11,6.11,0,0,0,1.37,2,4.24,4.24,0,0,0,1.94,1.11,1.49,1.49,0,0,0,1.69-.58A53.81,53.81,0,0,1,383,214q3.69-3.6,8.57-7.78t10.32-8.52q5.44-4.34,10.32-7.83L409.86,193q-1.5,2-3.31,4.23T402.73,202l-3.69,4.5q-1.69,2.07-2.94,3.54t-1.62,2a3.44,3.44,0,0,0-.5,2.38,7.59,7.59,0,0,0,.69,2.7,2.63,2.63,0,0,0,1.63,1.48q1.06.32,2.56-1.37a41.2,41.2,0,0,1,3.25-3.28q2.37-2.22,5.5-4.92t6.63-5.55q3.5-2.86,6.69-5.34t5.69-4.18a21.12,21.12,0,0,1,3.63-2.12,88.16,88.16,0,0,0-6.13,6.56,51.15,51.15,0,0,0-4.69,6,18.9,18.9,0,0,0-2.81,5.92,6.63,6.63,0,0,0,.25,3.6,8.63,8.63,0,0,0,1.94,3.17,10.8,10.8,0,0,0,3,2.22,7.37,7.37,0,0,0,3.32.85,7.55,7.55,0,0,0,3.31-1.54,63,63,0,0,0,5.25-4q2.94-2.43,6.13-5.34l1.74-1.6c0,.16-.06.34-.06.49a11.39,11.39,0,0,0,4.13,9.15,11.91,11.91,0,0,0,3.88,2.12,12.71,12.71,0,0,0,3.88.69,21.05,21.05,0,0,0,8.56-2.28A78.33,78.33,0,0,0,472.32,212q5.44-3.59,11-7.93t10.44-8.46q1.5-1.27,1.5-2C495.27,193.11,495,192.85,494.33,192.81Zm-32.14.37q3.19-2.86,6.07-5a30.08,30.08,0,0,1,5.19-3.17q2.31-1.06,3.31-.53.62.42-.06,1.85a15.41,15.41,0,0,1-2.38,3.33,38.59,38.59,0,0,1-4,3.86A35.2,35.2,0,0,1,465.5,197a20.81,20.81,0,0,1-4.94,2.17,6.65,6.65,0,0,1-4.31-.05A76.45,76.45,0,0,1,462.19,193.18Z"/><path class="cls-1" d="M138.37,249.34c0-3.6-.07-4-1.58-4.21l-1-.14a.82.82,0,0,1,.07-1.26c2.7-.18,5.51-.32,8.93-.31,3.06,0,5.69.47,7.05,1.3A5.89,5.89,0,0,1,155,250c0,3.2-2.16,4.57-3.82,5.4-.36.18-.36.39-.18.79,2.37,4.83,3.84,7.53,5.57,9a4.38,4.38,0,0,0,2.41,1,.69.69,0,0,1,.14.94,8.62,8.62,0,0,1-2.84.32,7.36,7.36,0,0,1-7-3.79,45.13,45.13,0,0,1-2.8-5.58,1.83,1.83,0,0,0-1.91-1.26c-1.26,0-1.33.07-1.33.79v4.43c0,3.31.21,3.56,1.83,3.85l1,.18a1.14,1.14,0,0,1,0,1.26c-1.91-.07-3.56-.11-5.29-.11s-3.38,0-5.26.1a1,1,0,0,1,0-1.26l1-.18c1.62-.29,1.84-.54,1.84-3.85Zm4.93,4.58c0,1.26.11,1.37,2.23,1.37a3.46,3.46,0,0,0,2.74-1,5.24,5.24,0,0,0,1.3-3.89c0-3.24-1.9-5.33-4.71-5.33-1.48,0-1.55.11-1.55,1.83Z"/><path class="cls-1" d="M176.26,252.91c0,1,0,1.08,1,1.08h2.48c1.87,0,2.3-.25,2.67-2l.18-.9c.25-.29,1.15-.29,1.33,0-.07,1.15-.11,2.45-.11,3.82s0,2.66.1,3.81a1,1,0,0,1-1.33,0l-.18-.9c-.36-1.73-.79-2-2.66-2h-2.48c-1,0-1,0-1,1.11v4.28a6.54,6.54,0,0,0,.57,3.42c.47.65,1.15.94,3.78.94,3.13,0,4.36-.1,6.34-4.17a.87.87,0,0,1,1.33.18,20.41,20.41,0,0,1-1.52,5.76c-1.91-.07-5.36-.11-8.31-.12h-4.68c-1.73,0-3.49,0-6.19.1a1,1,0,0,1,0-1.26l1.69-.25c1.62-.25,1.84-.47,1.84-3.78V248.69c0-3.28-.21-3.49-1.83-3.82l-.9-.18a.91.91,0,0,1,.07-1.26c1.69.07,3.46.11,5.18.12h7.63c2.3,0,4.36,0,4.82-.1,0,.58.29,3.17.46,5.58-.14.4-1,.47-1.33.14a8.32,8.32,0,0,0-1.37-2.84,4.72,4.72,0,0,0-3.53-1.12h-2.88c-1.19,0-1.19.07-1.19,1.4Z"/><path class="cls-1" d="M204.19,259.2c-.86,0-1,0-1.19.72l-1.41,4.17a4.19,4.19,0,0,0-.25,1.3c0,.21.47.43,1.48.61l1.08.18c.22.25.29,1.08-.07,1.26-1.26-.07-2.56-.07-4.07-.11-1.22,0-2.05.11-3.71.11-.4-.22-.36-1-.11-1.26l1-.11a2.48,2.48,0,0,0,2.2-1.8c.61-1.44,1.3-3.17,2.27-5.76l3.28-8.78c.83-2.27,1.44-3.53,1.34-4.57a7.23,7.23,0,0,0,3.13-2.16c.47,0,.68.18.83.72.29,1,.72,2.38,1.62,4.93l4.88,14.12c.75,2.16,1.08,3,2.41,3.21l1.37.22c.22.18.29,1,0,1.26-1.73-.07-3.67-.11-5.54-.11s-3.2,0-4.86.1a.82.82,0,0,1-.07-1.26l1.15-.18c.83-.14,1-.39,1-.61a15.25,15.25,0,0,0-.68-2.45l-1-3.1c-.18-.58-.47-.65-1.73-.65Zm4.11-1.9c.83,0,1-.11.72-1l-.93-2.92c-.5-1.55-1.15-3.49-1.47-4.25-.29.83-1,2.77-1.55,4.43l-.9,2.7c-.33,1-.14,1.08.75,1.08Z"/><path class="cls-1" d="M237.18,261.39c0,1.69.14,2.84.61,3.42s1.11.9,3.74.9c3.28,0,4.28-.1,6.41-4.28a1,1,0,0,1,1.37.22,22.21,22.21,0,0,1-1.55,5.83c-1.91-.07-5.36-.11-8.31-.12h-4.82c-1.66,0-3.46,0-5.69.1a1,1,0,0,1-.11-1.26l1.37-.18c1.62-.21,1.84-.5,1.84-3.85V248.79c0-3.35-.21-3.67-1.83-3.89l-1-.15a.82.82,0,0,1,.07-1.26q2.81.11,5.4.12c1.73,0,3.53,0,5.33-.1a1,1,0,0,1,0,1.26l-.94.14c-1.62.25-1.84.54-1.84,3.89Z"/><path class="cls-1" d="M263.39,246.33c0-.86,0-1-.86-1h-2.23c-2.63,0-3.38,1.44-4.47,4.06a1,1,0,0,1-1.33-.32,43.9,43.9,0,0,0,1.19-6.12.87.87,0,0,1,.5-.18.83.83,0,0,1,.5.14c.18.61.29.76,3,.76h13.39c2.38,0,2.92,0,3.24-.79a.89.89,0,0,1,.47-.11.76.76,0,0,1,.54.25,25.36,25.36,0,0,0-.55,6.19c-.18.32-1.15.4-1.33.11-.61-2.3-1.11-4-3.81-4h-2.16c-.86,0-1,.11-1,1v15.88c0,3.35.21,3.63,1.83,3.85l1.44.18a1.15,1.15,0,0,1,0,1.26c-2.34-.07-4.14-.11-5.76-.12s-3.6,0-6.12.1a1,1,0,0,1,0-1.26l1.62-.18c1.62-.18,1.84-.5,1.84-3.85Z"/><path class="cls-1" d="M299.47,262.24c0,3.35.21,3.63,1.83,3.85l1.44.18a1.14,1.14,0,0,1,0,1.26c-2.34-.07-4.1-.11-5.83-.11s-3.53,0-5.65.1a1,1,0,0,1,0-1.26l1.22-.18c1.62-.25,1.84-.5,1.84-3.85v-1.8a7.39,7.39,0,0,0-1-4.29l-4.28-8.86c-.72-1.48-1-2.05-2.3-2.27l-1.22-.22c-.32-.29-.29-1.15.14-1.26,1.62.07,3,.11,5.08.11s4,0,5.26-.1c.32.14.39,1,.07,1.26l-1.22.29c-.65.14-.86.29-.86.32a8.84,8.84,0,0,0,.93,2.52l1.69,3.85c.54,1.19,1.37,2.85,1.8,3.74,1-1.76,2.16-4.1,3.1-5.94,1.3-2.55,1.73-3.63,1.73-4.07,0-.21-.58-.43-1.44-.58l-.68-.14c-.29-.18-.32-1.08,0-1.26,1.44.07,2.74.11,4,.11s2.48,0,3.53-.11c.43.15.43,1,.14,1.26l-.94.18a3.11,3.11,0,0,0-1.87.86,39.9,39.9,0,0,0-3.14,5.11l-2.27,4.1a7.86,7.86,0,0,0-1.19,4.64Z"/><path class="cls-1" d="M319.89,266c0,3.56-2.81,5.58-5.91,6.29a.67.67,0,0,1-.39-1.15c1.37-.5,3.2-1.72,3.2-3.49a2.38,2.38,0,0,0-2.08-2.34,1.64,1.64,0,0,1-1.12-1.62,2.47,2.47,0,0,1,2.59-2.34C317.74,261.4,319.9,262.69,319.89,266Z"/><path class="cls-1" d="M353.66,262.22c0,3.38.21,3.63,1.87,3.92l1,.18a1,1,0,0,1,0,1.26c-1.94-.07-3.71-.11-5.4-.11s-3.53,0-5.47.1a1,1,0,0,1,0-1.26l1-.18c1.66-.29,1.87-.54,1.88-3.92V249c0-3.38-.21-3.64-1.87-3.92l-1-.18a1,1,0,0,1,0-1.26c1.94.07,3.74.11,5.47.11s3.49,0,5.44-.1a1,1,0,0,1,0,1.26l-1,.18c-1.66.29-1.87.54-1.88,3.92Z"/><path class="cls-1" d="M388.86,261.39c0,2.34,0,4.61.07,5.79a2.85,2.85,0,0,1-2.12.83s-1.22-1.84-2.91-3.93l-8.3-10.3a52.53,52.53,0,0,0-3.92-4.61,6.33,6.33,0,0,0-.18,2.3v7c0,2.92.14,5.62.54,6.59.32.76,1.15,1,2.09,1.15l1,.15a1.14,1.14,0,0,1,0,1.26c-1.94-.07-3.38-.11-4.82-.11s-2.66,0-4,.1a1.14,1.14,0,0,1,0-1.26l.61-.11c1-.18,1.69-.43,2-1.19.4-1,.51-3.67.51-6.59v-9.14a8.2,8.2,0,0,0-.25-3.06c-.29-.61-.79-1-2-1.23l-1-.14c-.25-.29-.21-1.15.15-1.26,1.69.07,3.49.11,5,.11,1.22,0,2.27,0,3-.11.36,1.62,2.7,4.36,5.93,8.21l3,3.57c1.58,1.87,2.62,3.13,3.45,4a5.16,5.16,0,0,0,.14-1.62v-5c0-2.92-.14-5.62-.54-6.59-.32-.76-1.12-1-2.09-1.15l-1-.14a1.14,1.14,0,0,1,0-1.26c1.94.07,3.35.11,4.82.11s2.63,0,4-.11a1.14,1.14,0,0,1,0,1.26l-.65.11a2.21,2.21,0,0,0-1.95,1.19c-.39,1-.54,3.67-.54,6.59Z"/><path class="cls-1" d="M422,244.15a47.48,47.48,0,0,0,.43,5.62,1,1,0,0,1-1.37.25,6.54,6.54,0,0,0-6.76-5.15c-4,0-8.28,3.41-8.29,10.57s4.13,11,8.45,11,6.37-3.12,7.35-5.57a1,1,0,0,1,1.37.25,16,16,0,0,1-1.37,5.65,26.68,26.68,0,0,1-7.31,1.32,16.43,16.43,0,0,1-9.68-2.74,11.3,11.3,0,0,1-4.56-9.44,11.88,11.88,0,0,1,4.37-9.53,15.74,15.74,0,0,1,10-3.2A44.15,44.15,0,0,1,422,244.15Z"/><path class="cls-1" d="M433.41,265.14a2.92,2.92,0,1,1,5.83,0,2.82,2.82,0,0,1-2.92,2.91A2.92,2.92,0,0,1,433.41,265.14Z"/></g></g></svg>