<svg xmlns="http://www.w3.org/2000/svg" viewBox="0 0 192.76 192.76"><defs><style>.cls-1{fill:#fff;}.cls-1,.cls-2{fill-rule:evenodd;}.cls-2{fill:#231f20;}</style></defs><title>eqho-logo</title><g id="Layer_2" data-name="Layer 2"><g id="Layer_1-2" data-name="Layer 1"><polygon class="cls-1" points="0 0 192.76 0 192.76 192.76 0 192.76 0 0 0 0"/><polygon class="cls-2" points="26.47 148.55 19.37 148.55 19.37 151.36 25.89 151.36 25.89 153.74 19.37 153.74 19.37 157.19 26.79 157.19 26.79 159.56 16.64 159.56 16.64 146.19 26.47 146.19 26.47 148.55 26.47 148.55"/><path class="cls-2" d="M35.45,155.93l1.34,1.26a3.25,3.25,0,0,1-1.51.36c-1.51,0-3.64-.93-3.64-4.67s2.13-4.67,3.64-4.67,3.63.93,3.63,4.67a6,6,0,0,1-.61,2.87l-1.42-1.32-1.44,1.5ZM41.77,159l-1.46-1.37a7.5,7.5,0,0,0,1.4-4.77c0-6.28-4.66-7-6.43-7s-6.43.76-6.43,7,4.66,7,6.43,7a6.9,6.9,0,0,0,3.43-.9l1.59,1.51L41.77,159Z"/><path class="cls-2" d="M54.86,154.89c0,3.51-2.13,5-5.5,5a5.72,5.72,0,0,1-4.25-1.62,4.87,4.87,0,0,1-1-3.24v-8.87h2.85v8.68c0,1.87,1.08,2.68,2.38,2.68,1.92,0,2.7-.93,2.7-2.55v-8.81h2.86v8.7Z"/><path class="cls-2" d="M62.35,149.21h0L64,154.5H60.63l1.72-5.29Zm-2.46,7.59h4.94l.86,2.76h3L64,146.19H60.78L56,159.57H59l.93-2.76Z"/><polygon class="cls-2" points="73.69 157.14 80.34 157.14 80.34 159.56 70.89 159.56 70.89 146.19 73.69 146.19 73.69 157.14 73.69 157.14"/><polygon class="cls-2" points="90.94 153.56 90.94 159.56 88.15 159.56 88.15 146.19 90.94 146.19 90.94 151.25 96.16 151.25 96.16 146.19 98.95 146.19 98.95 159.56 96.16 159.56 96.16 153.56 90.94 153.56 90.94 153.56"/><path class="cls-2" d="M104.27,152.87c0-3.74,2.13-4.67,3.63-4.67s3.64.93,3.64,4.67-2.13,4.67-3.64,4.67-3.63-.93-3.63-4.67Zm-2.79,0c0,6.28,4.66,7,6.42,7s6.43-.76,6.43-7-4.66-7-6.43-7-6.42.76-6.42,7Z"/><path class="cls-2" d="M127.68,154.89c0,3.51-2.13,5-5.5,5a5.73,5.73,0,0,1-4.25-1.62,4.86,4.86,0,0,1-1-3.24v-8.87h2.85v8.68c0,1.87,1.08,2.68,2.39,2.68,1.92,0,2.7-.93,2.7-2.55v-8.81h2.85v8.7Z"/><path class="cls-2" d="M132.79,155.45c0,.74.4,2.16,2.84,2.16,1.32,0,2.8-.32,2.8-1.74,0-1-1-1.32-2.42-1.65l-1.44-.34c-2.17-.5-4.25-1-4.25-3.92,0-1.49.81-4.12,5.14-4.12,4.1,0,5.2,2.68,5.22,4.32H138c-.07-.59-.3-2-2.74-2-1.06,0-2.33.39-2.33,1.6,0,1,.86,1.26,1.41,1.39l3.26.8c1.83.45,3.5,1.2,3.5,3.6,0,4-4.1,4.38-5.27,4.38-4.88,0-5.72-2.81-5.72-4.47Z"/><polygon class="cls-2" points="146.19 159.56 143.4 159.56 143.4 146.19 146.19 146.19 146.19 159.56 146.19 159.56"/><polygon class="cls-2" points="157.35 146.19 159.96 146.19 159.96 159.56 157.16 159.56 151.71 150.02 151.66 150.02 151.66 159.56 149.06 159.56 149.06 146.19 152 146.19 157.3 155.5 157.35 155.5 157.35 146.19 157.35 146.19"/><path class="cls-2" d="M169.31,152.36h5.58v7.21H173l-.28-1.67a4.94,4.94,0,0,1-4.17,2c-3.22,0-6.14-2.31-6.14-7,0-3.65,2-7.1,6.53-7.08,4.11,0,5.73,2.66,5.87,4.51H172a2.94,2.94,0,0,0-2.92-2.2c-2,0-3.84,1.38-3.84,4.8,0,3.65,2,4.6,3.89,4.6a3.3,3.3,0,0,0,3.24-2.94h-3.11v-2.25Z"/><path class="cls-2" d="M18.84,173.2c0-3.74,2.12-4.68,3.63-4.68s3.63.93,3.63,4.68-2.12,4.68-3.63,4.68-3.63-.94-3.63-4.68Zm-2.79,0c0,6.28,4.66,7,6.43,7s6.43-.77,6.43-7-4.66-7-6.43-7-6.43.76-6.43,7Z"/><path class="cls-2" d="M36.55,172.75v-3.93h2.22c1.73,0,2.46.55,2.46,1.85,0,.6,0,2.08-2.09,2.08Zm0,2.31h3.2A4.1,4.1,0,0,0,44,170.79c0-2.62-1.56-4.28-4.15-4.28H33.76v13.38h2.79v-4.83Z"/><path class="cls-2" d="M51.6,172.75v-3.93h2.21c1.73,0,2.46.55,2.46,1.85,0,.6,0,2.08-2.08,2.08Zm0,2.31h3.2a4.1,4.1,0,0,0,4.27-4.27c0-2.62-1.56-4.28-4.15-4.28H48.8v13.38h2.8v-4.83Z"/><path class="cls-2" d="M66.06,173.2c0-3.74,2.12-4.68,3.63-4.68s3.63.93,3.63,4.68-2.13,4.68-3.63,4.68-3.63-.94-3.63-4.68Zm-2.79,0c0,6.28,4.65,7,6.43,7s6.42-.77,6.42-7-4.66-7-6.42-7-6.43.76-6.43,7Z"/><path class="cls-2" d="M83.72,172.4v-3.58H87.2c1.64,0,2,1,2,1.76,0,1.32-.7,1.83-2.16,1.83ZM81,179.89h2.75v-5.24H86.6c2.07,0,2.18.71,2.18,2.53a9,9,0,0,0,.29,2.7h3.09v-.36c-.6-.22-.6-.71-.6-2.66,0-2.5-.6-2.91-1.69-3.4a3.19,3.19,0,0,0,2.06-3.18c0-1.16-.65-3.78-4.21-3.78H81v13.38Z"/><polygon class="cls-2" points="102.36 179.89 99.56 179.89 99.56 168.88 95.52 168.88 95.52 166.51 106.4 166.51 106.4 168.88 102.36 168.88 102.36 179.89 102.36 179.89"/><path class="cls-2" d="M121.39,175.21c0,3.52-2.12,5-5.5,5a5.75,5.75,0,0,1-4.24-1.63,4.83,4.83,0,0,1-1-3.24v-8.87h2.85v8.68c0,1.86,1.08,2.69,2.39,2.69,1.92,0,2.7-.94,2.7-2.56v-8.81h2.85v8.7Z"/><polygon class="cls-2" points="134.92 166.51 137.53 166.51 137.53 179.89 134.73 179.89 129.27 170.35 129.24 170.35 129.24 179.89 126.63 179.89 126.63 166.51 129.57 166.51 134.88 175.82 134.92 175.82 134.92 166.51 134.92 166.51"/><polygon class="cls-2" points="145.41 179.89 142.61 179.89 142.61 166.51 145.41 166.51 145.41 179.89 145.41 179.89"/><polygon class="cls-2" points="156.32 179.89 153.53 179.89 153.53 168.88 149.49 168.88 149.49 166.51 160.37 166.51 160.37 168.88 156.32 168.88 156.32 179.89 156.32 179.89"/><polygon class="cls-2" points="170.93 179.89 168.13 179.89 168.13 174.84 163.51 166.51 166.81 166.51 169.58 172.32 172.24 166.51 175.4 166.51 170.93 174.87 170.93 179.89 170.93 179.89"/><path class="cls-2" d="M95.71,6.84,5.64,51.2V72H15.72v62.5H175V72h12.1V51.2L95.71,6.84Zm59.82,108.87H35.22V58.59L95.71,27.68l59.82,30.91v57.12Z"/><polygon class="cls-2" points="123.26 78.75 67.48 78.75 67.48 58.59 123.26 58.59 123.26 78.75 123.26 78.75"/><polygon class="cls-2" points="123.26 107.66 67.48 107.66 67.48 87.49 123.26 87.49 123.26 107.66 123.26 107.66"/></g></g></svg>