<svg xmlns="http://www.w3.org/2000/svg" viewBox="0 0 28.21 32.84"><defs><style>.cls-1{fill:#006bb6;}</style></defs><title>realtor-logo</title><g id="Layer_2" data-name="Layer 2"><g id="Layer_1-2" data-name="Layer 1"><path class="cls-1" d="M.47,28.93h.61a1.3,1.3,0,0,1,.93.21.94.94,0,0,1,.3.73.84.84,0,0,1-.91.84H1l1.26,2h.5l-1-1.66a1.17,1.17,0,0,0,1-1.23,1.36,1.36,0,0,0-.55-1.1,1.66,1.66,0,0,0-1-.24H.06v4.24H.47V28.93Z"/><polygon class="cls-1" points="4.74 30.42 4.74 28.93 6.52 28.93 6.52 28.52 4.32 28.52 4.32 32.76 6.52 32.76 6.52 32.35 4.74 32.35 4.74 30.84 6.52 30.84 6.52 30.42 4.74 30.42 4.74 30.42"/><path class="cls-1" d="M10.36,31H8.76l.79-2.13L10.36,31ZM8.11,32.76l.51-1.33H10.5L11,32.76h.45L9.81,28.52h-.5L7.67,32.76Z"/><polygon class="cls-1" points="14.57 32.76 14.57 32.35 13.08 32.35 13.08 28.52 12.66 28.52 12.66 32.76 14.57 32.76 14.57 32.76"/><polygon class="cls-1" points="16.67 32.76 16.67 28.93 17.52 28.93 17.52 28.52 15.4 28.52 15.4 28.93 16.25 28.93 16.25 32.76 16.67 32.76 16.67 32.76"/><path class="cls-1" d="M18.4,30.61a2.16,2.16,0,0,0,2.15,2.23,2.12,2.12,0,0,0,1.62-.72,2.16,2.16,0,0,0,.56-1.52,2.13,2.13,0,0,0-.65-1.56,2.09,2.09,0,0,0-1.52-.62,2.07,2.07,0,0,0-1.5.61,2.17,2.17,0,0,0-.66,1.56Zm.43,0a1.87,1.87,0,0,1,.65-1.38,1.64,1.64,0,0,1,1.07-.39,1.8,1.8,0,1,1-1.72,1.78Z"/><path class="cls-1" d="M24.56,28.93h.61a1.3,1.3,0,0,1,.93.21.94.94,0,0,1,.3.73.84.84,0,0,1-.91.84h-.4l1.26,2h.49l-1-1.66a1.17,1.17,0,0,0,1-1.23,1.36,1.36,0,0,0-.55-1.1,1.66,1.66,0,0,0-1-.24H24.14v4.24h.41V28.93Z"/><path class="cls-1" d="M0,0V27H27V0ZM14.35,3.24h3a5.1,5.1,0,0,1,0,10.18h-3ZM11.44,23.6H3.82V3.21h7.61Zm2.92,0V13.49L24.91,23.63Z"/><path class="cls-1" d="M27.45,27.73a.74.74,0,0,0-.54.22.78.78,0,0,0-.23.55.76.76,0,0,0,.23.54.75.75,0,0,0,.54.23A.78.78,0,0,0,28,29a.74.74,0,0,0,.22-.54.76.76,0,0,0-.77-.77Zm.68.77a.65.65,0,0,1-.19.48.7.7,0,0,1-.49.2.69.69,0,0,1-.68-.68A.69.69,0,0,1,27,28a.66.66,0,0,1,.48-.2.68.68,0,0,1,.68.69ZM27.47,28h-.32v.88h.13v-.39h.21l.19.39h.15l-.2-.41a.23.23,0,0,0,.21-.23c0-.17-.12-.24-.37-.24Zm0,.09c.17,0,.25,0,.25.16s-.08.15-.25.15h-.16v-.32Z"/></g></g></svg>