<svg xmlns="http://www.w3.org/2000/svg" viewBox="0 0 69.75 54.75"><defs><style>.cls-1{fill:#1766a4;}</style></defs><title>umbrella</title><g id="Layer_2" data-name="Layer 2"><g id="Layer_1-2" data-name="Layer 1"><path class="cls-1" d="M33.11.49l-.2,0-.26,0-.24,0h0C15.78,3,2.88,12.62,0,23.55a10.75,10.75,0,0,1,10.78-2A24.23,24.23,0,0,1,24.16,3.37,24.24,24.24,0,0,0,10.78,21.56a19.45,19.45,0,0,1,14.2-2h0a26.13,26.13,0,0,1,9.35-3.06c.3,3.24,2.06,17.28,6.71,38.1l1.91.1a334.58,334.58,0,0,1-6.75-38.43,35.81,35.81,0,0,1,8.48.24,16.23,16.23,0,0,1,14.34-2C54.21,2,42.22.32,36.12.34,42.22.32,54.21,2,59,14.57c0,0,6.33-5.27,10.72-2.05C63.6,3.44,49.09-1.66,33.11.49Zm-.71.09-.14,0Zm-3.71,1A35.83,35.83,0,0,1,32.23.62h0a35.83,35.83,0,0,0-3.53.91,30.4,30.4,0,0,0-4.46,1.8A30.4,30.4,0,0,1,28.7,1.53Zm9.36,1.74A8.75,8.75,0,0,0,32.42.58h0A8.75,8.75,0,0,1,38.06,3.27Z"/></g></g></svg>