<svg xmlns="http://www.w3.org/2000/svg" viewBox="0 0 59.24 9.33"><defs><style>.cls-1{fill:#fff;opacity:0.6;}</style></defs><title>wave</title><g id="Layer_2" data-name="Layer 2"><g id="Layer_1-2" data-name="Layer 1"><path class="cls-1" d="M0,5.92c2.52.23,5,.41,7.51.51s5,.12,7.41,0a53.45,53.45,0,0,0,7.23-.75,33.51,33.51,0,0,0,3.47-.8l3.59-1A99.71,99.71,0,0,1,44,.37a41,41,0,0,1,7.7-.31A31.52,31.52,0,0,1,59.24,1.4a63.54,63.54,0,0,0-7.48.41,61.87,61.87,0,0,0-7.25,1.31C39.74,4.27,35,5.87,30.2,7.27c-1.21.34-2.43.69-3.65,1A31.84,31.84,0,0,1,22.66,9a37,37,0,0,1-3.9.29c-1.3,0-2.59,0-3.88-.08a51,51,0,0,1-7.6-1.08C6,7.88,4.81,7.57,3.59,7.2A34.78,34.78,0,0,1,0,5.92Z"/></g></g></svg>